#!OML:ASF G:\JayActor3\Patient Classification 1\Patient 1\Session 2\male.ASF
:FULLY-SPECIFIED
:DEGREES
4676
root 44.0999 16.8835 -6.45045 5954.08 84.3114 -1246.31
lowerback -3.1819 -0.477518 -0.285733
upperback 2.88566 -0.629947 0.609306
thorax 4.77385 -0.325495 0.744678
lowerneck -10.1816 -3.20175 -2.75153
upperneck 6.75131 -4.64075 8.67444
head 3.95554 -1.88184 2.80707
rclavicle 8.82107e-016 6.4605e-015
rhumerus -30.1647 -7.19718 -84.4521
rradius 26.3866
rwrist -2.77643
rhand -20.7226 5.79666
rfingers 7.12502
rthumb 5.64213 -24.1082
lclavicle 8.82107e-016 6.4605e-015
lhumerus -35.2658 18.4152 79.4324
lradius 19.9996
lwrist 2.6899
lhand -18.3437 14.6537
lfingers 7.12502
lthumb 7.93864 44.4846
rfemur -18.9262 -2.76671 25.3008
rtibia 29.2457
rfoot -12.0772 -9.79192
rtoes 20.6092
lfemur -0.459747 8.20283 -16.5632
ltibia 45.7493
lfoot 3.04426 1.46371
ltoes -16.8928
4677
root 44.1587 16.8795 -6.44211 5955.95 84.1687 -1244.35
lowerback -3.05789 -0.425948 -0.0390654
upperback 2.92935 -0.575742 0.689649
thorax 4.74622 -0.29093 0.694131
lowerneck -10.1293 -3.24865 -2.78885
upperneck 6.53865 -4.69196 8.78089
head 3.88919 -1.90834 2.84336
rclavicle 1.05325e-014 -3.18055e-015
rhumerus -29.9905 -7.03909 -84.4777
rradius 26.4886
rwrist -2.83425
rhand -20.7001 5.75023
rfingers 7.12502
rthumb 5.66388 -24.1541
lclavicle 1.05325e-014 -3.18055e-015
lhumerus -35.3078 18.1934 79.567
lradius 20.3629
lwrist 3.10118
lhand -18.3465 14.6388
lfingers 7.12502
lthumb 7.93595 44.4699
rfemur -18.5792 -2.8585 25.5899
rtibia 29.2066
rfoot -12.2898 -9.76231
rtoes 20.6065
lfemur -1.42132 8.24922 -16.3046
ltibia 47.4644
lfoot 2.60155 2.40654
ltoes -17.2662
4678
root 44.2151 16.8752 -6.43437 5957.62 84.0331 -1242.59
lowerback -2.92989 -0.369328 0.193839
upperback 2.97431 -0.513059 0.765827
thorax 4.71803 -0.252458 0.647451
lowerneck -10.0803 -3.29673 -2.82833
upperneck 6.33347 -4.74475 8.8894
head 3.82602 -1.93538 2.88053
rclavicle -7.34882e-015 -1.36664e-015
rhumerus -29.7938 -6.88638 -84.5005
rradius 26.5594
rwrist -2.87459
rhand -20.688 5.68787
rfingers 7.12502
rthumb 5.67563 -24.2161
lclavicle -7.34882e-015 -1.36664e-015
lhumerus -35.3179 17.9881 79.7068
lradius 20.7148
lwrist 3.4658
lhand -18.3542 14.6255
lfingers 7.12502
lthumb 7.92847 44.4568
rfemur -18.2064 -2.92245 25.8601
rtibia 29.0895
rfoot -12.4557 -9.76378
rtoes 20.5991
lfemur -2.33766 8.31144 -16.083
ltibia 48.9984
lfoot 1.83596 3.45657
ltoes -17.5045
4679
root 44.2693 16.8711 -6.4272 5959.06 83.9066 -1241.06
lowerback -2.80319 -0.309983 0.406499
upperback 3.02077 -0.444714 0.835186
thorax 4.69258 -0.211674 0.605267
lowerneck -10.0373 -3.34567 -2.86188
upperneck 6.13692 -4.79919 8.99121
head 3.76639 -1.96316 2.91453
rclavicle 1.96331e-014 -1.20513e-014
rhumerus -29.5762 -6.74778 -84.5202
rradius 26.5949
rwrist -2.88307
rhand -20.6838 5.63239
rfingers 7.12502
rthumb 5.67961 -24.2715
lclavicle 1.96331e-014 -1.20513e-014
lhumerus -35.3012 17.7959 79.8493
lradius 21.0592
lwrist 3.78513
lhand -18.3636 14.6162
lfingers 7.12502
lthumb 7.91942 44.4478
rfemur -17.8528 -2.95425 26.1047
rtibia 28.9842
rfoot -12.6241 -9.78763
rtoes 20.6016
lfemur -3.22953 8.37628 -15.9047
ltibia 50.3817
lfoot 0.80839 4.54341
ltoes -17.4761
4680
root 44.3243 16.8833 -6.42033 5960.28 83.7916 -1239.76
lowerback -2.6781 -0.247057 0.596793
upperback 3.06364 -0.369624 0.897433
thorax 4.66475 -0.168162 0.568519
lowerneck -9.99856 -3.39587 -2.90016
upperneck 5.95208 -4.85553 9.0975
head 3.71149 -1.99143 2.95053
rclavicle 3.64646e-015 3.15571e-015
rhumerus -29.3472 -6.62825 -84.5351
rradius 26.5984
rwrist -2.86214
rhand -20.6915 5.59859
rfingers 7.12502
rthumb 5.67221 -24.3055
lclavicle 3.64646e-015 3.15571e-015
lhumerus -35.2534 17.61 79.9976
lradius 21.3899
lwrist 4.06664
lhand -18.3851 14.6117
lfingers 7.12502
lthumb 7.89861 44.4442
rfemur -17.4796 -2.94215 26.3209
rtibia 28.8589
rfoot -12.8053 -9.8445
rtoes 20.5767
lfemur -4.05321 8.43304 -15.7678
ltibia 51.531
lfoot -0.346058 5.59092
ltoes -17.2014
4681
root 44.3745 16.8805 -6.41403 5961.28 83.6914 -1238.7
lowerback -2.5596 -0.18178 0.761387
upperback 3.10187 -0.289436 0.950625
thorax 4.63625 -0.122869 0.536913
lowerneck -9.96946 -3.44565 -2.94046
upperneck 5.78815 -4.91208 9.20085
head 3.66462 -2.01932 2.98582
rclavicle -3.20463e-015 5.98218e-015
rhumerus -29.1109 -6.53048 -84.5457
rradius 26.5738
rwrist -2.80395
rhand -20.7058 5.58277
rfingers 7.12502
rthumb 5.65845 -24.3217
lclavicle -3.20463e-015 5.98218e-015
lhumerus -35.1805 17.4235 80.1523
lradius 21.7132
lwrist 4.3251
lhand -18.4141 14.6068
lfingers 7.12502
lthumb 7.87069 44.4403
rfemur -17.1871 -2.88913 26.511
rtibia 28.7879
rfoot -12.9757 -9.9432
rtoes 20.5137
lfemur -4.90195 8.47021 -15.6794
ltibia 52.5615
lfoot -1.53676 6.51086
ltoes -16.7871
4682
root 44.4227 16.8779 -6.40799 5962.04 83.6064 -1237.89
lowerback -2.44914 -0.116607 0.896409
upperback 3.13501 -0.207403 0.993004
thorax 4.60739 -0.077551 0.510583
lowerneck -9.9454 -3.49114 -2.98174
upperneck 5.64011 -4.96367 9.30458
head 3.62323 -2.04429 3.02164
rclavicle 2.63254e-015 -1.81313e-015
rhumerus -28.8683 -6.45005 -84.5583
rradius 26.5236
rwrist -2.71784
rhand -20.7229 5.58255
rfingers 7.12502
rthumb 5.64187 -24.3223
lclavicle 2.63254e-015 -1.81313e-015
lhumerus -35.0848 17.2466 80.3038
lradius 22.0272
lwrist 4.5582
lhand -18.4493 14.5941
lfingers 7.12502
lthumb 7.83672 44.4289
rfemur -16.9319 -2.79114 26.6699
rtibia 28.7424
rfoot -13.1577 -10.0824
rtoes 20.4238
lfemur -5.73052 8.47938 -15.6384
ltibia 53.4071
lfoot -2.64776 7.26814
ltoes -16.4638
4683
root 44.4689 16.8752 -6.4021 5962.54 83.5349 -1237.36
lowerback -2.3423 -0.0519259 1.00017
upperback 3.16234 -0.124018 1.02361
thorax 4.57481 -0.0325269 0.48945
lowerneck -9.93634 -3.53621 -3.02621
upperneck 5.51548 -5.01579 9.40812
head 3.5916 -2.06867 3.05766
rclavicle -4.37753e-015 3.82039e-015
rhumerus -28.6207 -6.38821 -84.5735
rradius 26.4541
rwrist -2.61681
rhand -20.7426 5.59103
rfingers 7.12502
rthumb 5.62285 -24.3144
lclavicle -4.37753e-015 3.82039e-015
lhumerus -34.9713 17.074 80.4529
lradius 22.3413
lwrist 4.77333
lhand -18.4619 14.603
lfingers 7.12502
lthumb 7.82458 44.4382
rfemur -16.7638 -2.65413 26.7964
rtibia 28.8205
rfoot -13.3977 -10.2499
rtoes 20.305
lfemur -6.55742 8.45344 -15.646
ltibia 54.1115
lfoot -3.73187 7.82519
ltoes -16.3266
4684
root 44.5133 16.8719 -6.39634 5962.81 83.4734 -1237.08
lowerback -2.24173 0.00902548 1.07518
upperback 3.1848 -0.0439012 1.04179
thorax 4.54092 0.00999885 0.471164
lowerneck -9.93351 -3.5758 -3.06773
upperneck 5.40978 -5.062 9.50936
head 3.5663 -2.08957 3.09278
rclavicle -1.18075e-014 -6.02566e-015
rhumerus -28.3709 -6.33194 -84.5998
rradius 26.3764
rwrist -2.51856
rhand -20.7634 5.5835
rfingers 7.12502
rthumb 5.60281 -24.3224
lclavicle -1.18075e-014 -6.02566e-015
lhumerus -34.8485 16.902 80.5959
lradius 22.6606
lwrist 4.98362
lhand -18.4527 14.6336
lfingers 7.12502
lthumb 7.8334 44.4685
rfemur -16.6345 -2.49081 26.8927
rtibia 28.9349
rfoot -13.6573 -10.4439
rtoes 20.1755
lfemur -7.36219 8.38882 -15.6989
ltibia 54.6391
lfoot -4.75903 8.17846
ltoes -16.3791
4685
root 44.556 16.8681 -6.39065 5962.83 83.4173 -1237.05
lowerback -2.14688 0.0641263 1.12216
upperback 3.20269 0.0299355 1.04842
thorax 4.50564 0.0485366 0.456075
lowerneck -9.9393 -3.60977 -3.10127
upperneck 5.32009 -5.10208 9.60185
head 3.54648 -2.10708 3.12417
rclavicle 3.05787e-015 -1.72321e-014
rhumerus -28.1196 -6.27651 -84.6396
rradius 26.2988
rwrist -2.42602
rhand -20.7706 5.52601
rfingers 7.12502
rthumb 5.5958 -24.3801
lclavicle 3.05787e-015 -1.72321e-014
lhumerus -34.7237 16.7273 80.7326
lradius 22.9951
lwrist 5.19683
lhand -18.4239 14.671
lfingers 7.12502
lthumb 7.8612 44.5049
rfemur -16.544 -2.31295 26.9608
rtibia 29.0856
rfoot -13.9448 -10.65
rtoes 20.1309
lfemur -8.14791 8.28156 -15.7943
ltibia 54.9988
lfoot -5.75107 8.35404
ltoes -16.6477
4686
root 44.5973 16.8637 -6.38516 5962.67 83.3623 -1237.22
lowerback -2.05432 0.113512 1.14949
upperback 3.2183 0.0972436 1.0459
thorax 4.46936 0.0832519 0.441965
lowerneck -9.94545 -3.63863 -3.13077
upperneck 5.23678 -5.1358 9.68911
head 3.52803 -2.12149 3.1537
rclavicle 8.58346e-015 3.57812e-015
rhumerus -27.868 -6.18896 -84.7001
rradius 26.2254
rwrist -2.38373
rhand -20.7787 5.41827
rfingers 7.12502
rthumb 5.58805 -24.488
lclavicle 8.58346e-015 3.57812e-015
lhumerus -34.6001 16.5363 80.8705
lradius 23.3465
lwrist 5.43039
lhand -18.4047 14.6843
lfingers 7.12502
lthumb 7.87976 44.5175
rfemur -16.4841 -2.13591 27.0069
rtibia 29.2683
rfoot -14.2455 -10.8591
rtoes 20.1083
lfemur -8.90902 8.13256 -15.9236
ltibia 55.2013
lfoot -6.70612 8.39735
ltoes -17.07
4687
root 44.6373 16.8585 -6.38006 5962.37 83.3032 -1237.54
lowerback -1.96543 0.155459 1.1652
upperback 3.23441 0.155257 1.03609
thorax 4.43571 0.11306 0.426162
lowerneck -9.95399 -3.65979 -3.14681
upperneck 5.15589 -5.15977 9.75986
head 3.50927 -2.13155 3.17659
rclavicle 3.55483e-015 -2.17421e-015
rhumerus -27.613 -6.06318 -84.7835
rradius 26.1544
rwrist -2.39385
rhand -20.8021 5.28759
rfingers 7.12502
rthumb 5.56543 -24.6193
lclavicle 3.55483e-015 -2.17421e-015
lhumerus -34.4827 16.3286 81.0098
lradius 23.7239
lwrist 5.68717
lhand -18.3748 14.7009
lfingers 7.12502
lthumb 7.90861 44.5329
rfemur -16.4485 -1.9725 27.0367
rtibia 29.4769
rfoot -14.5586 -11.0565
rtoes 20.1338
lfemur -9.64395 7.94339 -16.0789
ltibia 55.2587
lfoot -7.63644 8.36393
ltoes -17.6866
4688
root 44.6762 16.8526 -6.37543 5961.99 83.231 -1237.92
lowerback -1.87543 0.190473 1.18168
upperback 3.25228 0.204139 1.02321
thorax 4.40331 0.138433 0.406113
lowerneck -9.95809 -3.67159 -3.1559
upperneck 5.06547 -5.17015 9.81537
head 3.48538 -2.13596 3.19467
rclavicle 7.04288e-015 6.1996e-015
rhumerus -27.3591 -5.9085 -84.88
rradius 26.0872
rwrist -2.44107
rhand -20.8395 5.15613
rfingers 7.12502
rthumb 5.5293 -24.7517
lclavicle 7.04288e-015 6.1996e-015
lhumerus -34.3614 16.1045 81.1549
lradius 24.1167
lwrist 5.95758
lhand -18.3421 14.7196
lfingers 7.12502
lthumb 7.94017 44.5505
rfemur -16.4276 -1.83237 27.0605
rtibia 29.7042
rfoot -14.8833 -11.2308
rtoes 20.2031
lfemur -10.3494 7.71294 -16.2451
ltibia 55.1844
lfoot -8.5506 8.30911
ltoes -18.385
4689
root 44.7141 16.8462 -6.37146 5961.6 83.1448 -1238.32
lowerback -1.78602 0.218206 1.20455
upperback 3.27049 0.243099 1.00943
thorax 4.37167 0.159119 0.380915
lowerneck -9.96572 -3.67603 -3.15364
upperneck 4.97698 -5.17069 9.8495
head 3.46106 -2.13627 3.20494
rclavicle -1.5996e-015 -1.90088e-015
rhumerus -27.1105 -5.73858 -84.9858
rradius 26.0277
rwrist -2.50882
rhand -20.8824 5.03551
rfingers 7.12502
rthumb 5.4879 -24.8734
lclavicle -1.5996e-015 -1.90088e-015
lhumerus -34.2392 15.8653 81.3054
lradius 24.5261
lwrist 6.23701
lhand -18.3031 14.7481
lfingers 7.12502
lthumb 7.97785 44.5776
rfemur -16.4192 -1.72435 27.0833
rtibia 29.9448
rfoot -15.209 -11.3765
rtoes 20.2588
lfemur -11.027 7.44857 -16.4144
ltibia 54.991
lfoot -9.45445 8.28413
ltoes -19.093
4690
root 44.751 16.8392 -6.36825 5961.2 83.0431 -1238.74
lowerback -1.69879 0.238902 1.23544
upperback 3.29086 0.27239 0.994998
thorax 4.34361 0.175318 0.34997
lowerneck -9.97153 -3.67694 -3.14775
upperneck 4.88351 -5.16562 9.86971
head 3.43404 -2.13469 3.21077
rclavicle 7.39774e-015 -1.76794e-014
rhumerus -26.8673 -5.56756 -85.095
rradius 25.9776
rwrist -2.58259
rhand -20.9247 4.93193
rfingers 7.12502
rthumb 5.44707 -24.9781
lclavicle 7.39774e-015 -1.76794e-014
lhumerus -34.1131 15.6109 81.4629
lradius 24.9487
lwrist 6.52059
lhand -18.2595 14.7851
lfingers 7.12502
lthumb 8.01992 44.6129
rfemur -16.4183 -1.6554 27.104
rtibia 30.1931
rfoot -15.5298 -11.49
rtoes 20.2674
lfemur -11.6729 7.15428 -16.5834
ltibia 54.6899
lfoot -10.3354 8.32371
ltoes -19.7196
